<?xml version="1.0" encoding="utf-8"?>
<!-- Generator: Adobe Illustrator 24.2.0, SVG Export Plug-In . SVG Version: 6.00 Build 0)  -->
<svg version="1.1" id="svg240" xmlns="http://www.w3.org/2000/svg" xmlns:xlink="http://www.w3.org/1999/xlink" x="0px" y="0px"
	 viewBox="0 0 1568.7 800" style="enable-background:new 0 0 1568.7 800;" xml:space="preserve">
<style type="text/css">
	.st0{fill:#FF4500;}
	.st1{fill:#222222;}
</style>
<g id="Artwork" transform="translate(-257.2 -96.4)">
	<g id="g237">
		<g id="g235">
			<circle id="circle221" class="st0" cx="1534.8" cy="406.2" r="34.3"/>
			<path class="st1" d="M462.7,641.3c-12,0-22.9-2.2-32.7-6.6c-9.8-4.4-18.2-10.2-25.1-17.4c-0.6-0.6-1.1-1.1-1.6-1.6
				c-7.1-7.4-5.6-19.4,3.1-24.8h0c8-4.9,18.2-3.7,25,2.8c2.1,2,4.4,4,6.9,5.9c7.2,5.5,15.3,8.3,24.4,8.3c5.6,0,10.9-1.1,15.8-3.3
				c4.9-2.2,8.9-5.2,12-9c3.1-3.8,4.6-8.2,4.6-13.4c0-5.1-1.6-9.5-4.7-13.2c-3.1-3.7-7.1-6.8-12-9.3c-4.9-2.6-9.9-4.7-15.1-6.4
				c-5.2-1.7-9.9-3.3-14-4.7c-8-2.6-16.1-6.1-24.3-10.5c-8.2-4.4-15.2-10.2-20.8-17.7c-5.7-7.4-8.5-16.9-8.5-28.5s3-21.5,8.9-29.8
				c5.9-8.3,13.8-14.6,23.5-19.1c9.8-4.4,20.3-6.6,31.7-6.6c16.3,0,30.2,4.1,41.6,12.2c2.7,1.9,4.8,3.5,6.7,5
				c8.4,6.9,8,19.9-0.8,26.3l0,0c-7.2,5.2-17.2,4.7-23.6-1.5c-0.9-0.8-1.8-1.7-2.7-2.5c-5.1-4.5-12-6.8-20.6-6.8c-7.5,0-14,2-19.7,6
				c-5.7,4-8.5,9.7-8.5,17c0,6.2,2,11.2,6.1,15c4,3.8,9.1,6.9,15.2,9.3c6.1,2.4,12.3,4.6,18.7,6.6c5.2,1.6,11.2,3.8,17.8,6.5
				c6.7,2.7,13.1,6.3,19.4,10.7c6.3,4.4,11.5,9.8,15.7,16.4c4.2,6.6,6.3,14.7,6.3,24.3c0,11.7-3.2,22.1-9.5,31.2
				c-6.4,9.1-14.7,16.2-25.1,21.3C486.2,638.7,474.9,641.3,462.7,641.3z"/>
			<path class="st1" d="M561.2,619.2V369.6c0-10.5,8.5-19,19-19h0c10.5,0,19,8.5,19,19v78c0,0,10.5-6.7,19.6-9.8
				c9.1-3.1,19.3-4.7,29.9-4.7c16.6,0,36.1,5.9,46.4,13.1c10.3,7.2,21.8,17.6,26.5,28.8c4.7,11.2,7.1,22.9,7.1,35.1v109.1
				c0,10.5-8.5,19-19,19h0c-10.5,0-19-8.5-19-19V518.3c0-15.8-4-27.7-12.1-35.7c-8-8-18.7-12-31.9-12c-8.8,0-16.8,1.8-24,5.3
				c-7.2,3.5-12.9,8.9-17.1,16c-4.2,7.1-6.4,15.9-6.4,26.3v100.9c0,10.5-8.5,19-19,19h0C569.7,638.3,561.2,629.7,561.2,619.2z"/>
			<path id="path223" class="st1" d="M1045.1,552.4c16.8,0,26.5-12.6,25.9-24.9c-0.3-6.5-1-10.7-1.6-13.9
				c-10.3-44.6-46.6-77.6-89.6-77.6c-51.1,0-92.5,46.2-92.5,103.2s41.4,103.2,92.5,103.2c32,0,55-11.6,71.5-30.1
				c8.1-9.1,6.5-23-3.2-29.8c-8.1-5.5-18.1-3.6-25.6,2.6c-7.1,6.1-20.7,18.4-42.7,18.4c-25.9,0-47.9-22.3-52.7-51.7h118V552.4z
				 M979.5,475.1c23.3,0,43.3,18.1,50.8,43H928.7C936.1,492.8,956.2,475.1,979.5,475.1z"/>
			<path id="path225" class="st1" d="M889.2,456.3c0-9.7-7.1-17.5-16.2-19.1c-28.1-4.2-54.7,6.1-69.9,25.2v-2.6
				c0-12-9.7-19.4-19.4-19.4c-10.7,0-19.4,8.7-19.4,19.4v158.5c0,10.3,7.8,19.4,18.1,20.1c11.3,0.6,20.7-8.1,20.7-19.4v-81.8
				c0-36.2,27.2-66,64.7-61.8h3.9C881.5,474.7,889.2,466.3,889.2,456.3L889.2,456.3z"/>
			<path id="path227" class="st1" d="M1554.2,477c0-10.7-8.7-19.4-19.4-19.4s-19.4,8.7-19.4,19.4v142c0,10.7,8.7,19.4,19.4,19.4
				s19.4-8.7,19.4-19.4V477z"/>
			<path id="path229" class="st1" d="M1265.7,369.6c0-10.7-8.7-19.4-19.4-19.4s-19.4,8.7-19.4,19.4V456
				c-13.3-13.3-29.8-19.7-49.5-19.7c-51.1,0-92.5,46.2-92.5,103.2s41.4,103.2,92.5,103.2c19.7,0,36.5-6.8,49.8-20.1
				c1.6,9.1,9.7,15.8,19.1,15.8c10.7,0,19.4-8.7,19.4-19.4V369.6z M1177.7,604.1c-29.8,0-53.7-28.8-53.7-64.7
				c0-35.6,23.9-64.7,53.7-64.7s53.7,28.8,53.7,64.7S1207.2,604.1,1177.7,604.1z"/>
			<path id="path231" class="st1" d="M1468.2,369.6c0-10.7-8.7-19.4-19.4-19.4c-10.7,0-19.4,8.7-19.4,19.4V456
				c-13.3-13.3-29.8-19.7-49.5-19.7c-51.1,0-92.5,46.2-92.5,103.2s41.4,103.2,92.5,103.2c19.7,0,36.5-6.8,49.8-20.1
				c1.6,9.1,9.7,15.8,19.1,15.8c10.7,0,19.4-8.7,19.4-19.4V369.6z M1379.9,604.1c-29.8,0-53.7-28.8-53.7-64.7
				c0-35.6,23.9-64.7,53.7-64.7c29.8,0,53.7,28.8,53.7,64.7S1409.6,604.1,1379.9,604.1z"/>
			<path id="path233" class="st1" d="M1652.5,619.3V475.1h17.1c9.1,0,17.1-6.8,17.8-16.2c0.6-10-7.4-18.4-17.1-18.4h-17.8v-27.2
				c0-10.3-7.8-19.4-18.1-20.1c-11.3-0.6-20.7,8.1-20.7,19.4v28.1h-16.2c-9.1,0-17.1,6.8-17.8,16.2c-0.6,10,7.4,18.4,17.1,18.4h16.5
				v144.2c0,10.7,8.7,19.4,19.4,19.4C1644.1,638.4,1652.5,630,1652.5,619.3L1652.5,619.3z"/>
		</g>
	</g>
</g>
</svg>
